<svg width="18" height="17" viewBox="0 0 18 17" fill="none" xmlns="http://www.w3.org/2000/svg">
<path d="M1.125 0.375H16.875C17.4727 0.375 18 0.902344 18 1.5V2.625C18 3.25781 17.4727 3.75 16.875 3.75H1.125C0.492188 3.75 0 3.25781 0 2.625V1.5C0 0.902344 0.492188 0.375 1.125 0.375ZM1.125 4.875H16.875V13.875C16.875 15.1406 15.8555 16.125 14.625 16.125H3.375C2.10938 16.125 1.125 15.1406 1.125 13.875V4.875ZM5.625 7.6875C5.625 8.00391 5.87109 8.25 6.1875 8.25H11.8125C12.0938 8.25 12.375 8.00391 12.375 7.6875C12.375 7.40625 12.0938 7.125 11.8125 7.125H6.1875C5.87109 7.125 5.625 7.40625 5.625 7.6875Z" fill="#F04438"/>
</svg>
