<svg width="19" height="19" viewBox="0 0 19 19" fill="none" xmlns="http://www.w3.org/2000/svg">
<path d="M14.625 7.5625C14.625 9.17969 14.0977 10.6914 13.2188 11.8867L17.6484 16.3516C18.1055 16.7734 18.1055 17.5117 17.6484 17.9336C17.2266 18.3906 16.4883 18.3906 16.0664 17.9336L11.6016 13.4688C10.4062 14.3828 8.89453 14.875 7.3125 14.875C3.26953 14.875 0 11.6055 0 7.5625C0 3.55469 3.26953 0.25 7.3125 0.25C11.3203 0.25 14.625 3.55469 14.625 7.5625ZM7.3125 12.625C9.10547 12.625 10.7578 11.6758 11.6719 10.0938C12.5859 8.54688 12.5859 6.61328 11.6719 5.03125C10.7578 3.48438 9.10547 2.5 7.3125 2.5C5.48438 2.5 3.83203 3.48438 2.91797 5.03125C2.00391 6.61328 2.00391 8.54688 2.91797 10.0938C3.83203 11.6758 5.48438 12.625 7.3125 12.625Z" fill="#4143BE"/>
</svg>
