<svg width="63" height="41" viewBox="0 0 63 41" fill="none" xmlns="http://www.w3.org/2000/svg">
<rect width="63" height="41" fill="#F5F5F5"/>
<g id="Desktop">
<path d="M-294 -339C-294 -343.418 -290.418 -347 -286 -347H10318C10322.4 -347 10326 -343.418 10326 -339V6329C10326 6333.42 10322.4 6337 10318 6337H-286C-290.418 6337 -294 6333.42 -294 6329V-339Z" fill="white" fill-opacity="0.4"/>
<g id="Bornes">
<path d="M-147 -239C-147 -243.418 -143.418 -247 -139 -247H1851C1855.42 -247 1859 -243.418 1859 -239V6103C1859 6107.42 1855.42 6111 1851 6111H-139C-143.418 6111 -147 6107.42 -147 6103V-239Z" fill="#F2F9FD"/>
<path d="M-139 -237H1851V-257H-139V-237ZM1849 -239V6103H1869V-239H1849ZM1851 6101H-139V6121H1851V6101ZM-137 6103V-239H-157V6103H-137ZM-139 6101C-137.895 6101 -137 6101.9 -137 6103H-157C-157 6112.94 -148.941 6121 -139 6121V6101ZM1849 6103C1849 6101.9 1849.9 6101 1851 6101V6121C1860.94 6121 1869 6112.94 1869 6103H1849ZM1851 -237C1849.9 -237 1849 -237.895 1849 -239H1869C1869 -248.941 1860.94 -257 1851 -257V-237ZM-139 -257C-148.941 -257 -157 -248.941 -157 -239H-137C-137 -237.895 -137.895 -237 -139 -237V-257Z" fill="#12B76A"/>
<g id="Liste de bornes">
<path d="M-80 -177H1792V-197H-80V-177ZM1790 -179V1203H1810V-179H1790ZM1792 1201H-80V1221H1792V1201ZM-78 1203V-179H-98V1203H-78ZM-80 1201C-78.8954 1201 -78 1201.9 -78 1203H-98C-98 1212.94 -89.9411 1221 -80 1221V1201ZM1790 1203C1790 1201.9 1790.9 1201 1792 1201V1221C1801.94 1221 1810 1212.94 1810 1203H1790ZM1792 -177C1790.9 -177 1790 -177.895 1790 -179H1810C1810 -188.941 1801.94 -197 1792 -197V-177ZM-80 -197C-89.9411 -197 -98 -188.941 -98 -179H-78C-78 -177.895 -78.8954 -177 -80 -177V-197Z" fill="#12B76A"/>
<g id="Liste de borne (vue borne)" clip-path="url(#clip0_0_1)">
<rect width="1728" height="1117" transform="translate(-10 -48)" fill="#F2F4F5"/>
<g id="debora-pilati-dOG0z4-gqp0-unsplash 1">
<rect x="-7" y="-74" width="1725" height="1145" style="mix-blend-mode:hard-light"/>
</g>
<g id="view">
<g id="view-container">
<g id="menu">
<g id="view-side-left" filter="url(#filter0_d_0_1)">
<mask id="path-7-inside-1_0_1" fill="white">
<path d="M-10 -24H49C62.2548 -24 73 -13.2548 73 0V1021C73 1034.25 62.2548 1045 49 1045H-10V-24Z"/>
</mask>
<path d="M-10 -24H49C62.2548 -24 73 -13.2548 73 0V1021C73 1034.25 62.2548 1045 49 1045H-10V-24Z" fill="white" shape-rendering="crispEdges"/>
<path d="M-10 -24H73H-10ZM73 1045H-10H73ZM-10 1045V-24V1045ZM49 -24C62.8071 -24 74 -12.8071 74 1V1020C74 1033.81 62.8071 1045 49 1045C61.7026 1045 72 1034.25 72 1021V0C72 -13.2548 61.7026 -24 49 -24Z" fill="#E7E9ED" mask="url(#path-7-inside-1_0_1)"/>
<g id="side-header">
<g id="logo">
<g id="Group 1">
<g id="Group">
<path id="Vector" d="M2.11948 20.7498C3.3269 19.4479 4.93475 18.5862 6.94303 18.1645V17.9899C5.54663 17.4079 4.45158 16.4992 3.65787 15.2627C2.86518 14.0262 2.46883 12.6162 2.46883 11.0305C2.46883 9.66331 2.75588 8.45644 3.33098 7.40885C3.90609 6.36127 4.77539 5.52503 5.93889 4.90016C7.01555 4.31817 8.16883 3.9363 9.3977 3.75455C10.6276 3.57281 12.4346 3.48193 14.8209 3.48193H26.3005V35.9653H13.2937C11.0382 35.9653 9.18012 35.7621 7.71733 35.3547C6.25453 34.9473 4.9133 34.2642 3.69055 33.3045C2.65781 32.505 1.8355 31.4942 1.22464 30.272C0.613781 29.0498 0.308351 27.6326 0.308351 26.0183C0.307329 23.8078 0.911038 22.0516 2.11948 20.7498ZM11.1332 14.5429C11.3804 15.0809 11.832 15.5026 12.4867 15.8079C13.0833 16.0846 13.6615 16.2368 14.2223 16.2664C14.7821 16.295 15.7607 16.3103 17.1581 16.3103H18.1837V9.43868H17.6157C16.1611 9.43868 15.066 9.44991 14.3305 9.47135C13.5961 9.49279 12.9597 9.62042 12.4203 9.85322C11.8524 10.1003 11.4346 10.5006 11.1649 11.0529C10.8952 11.6053 10.7614 12.1434 10.7614 12.6672C10.7624 13.3799 10.886 14.0048 11.1332 14.5429ZM9.22303 27.9705C9.56523 28.5883 10.1066 29.058 10.8493 29.3775C11.693 29.741 12.5225 29.9371 13.3376 29.9667C14.1528 29.9953 15.6217 30.0106 17.7465 30.0106H18.1826V21.8739H16.6769C15.2223 21.8739 14.0619 21.8852 13.1957 21.9066C12.3294 21.928 11.6501 22.0342 11.1547 22.2231C10.3395 22.5141 9.72867 22.9429 9.32109 23.5106C8.91351 24.0783 8.71023 24.8635 8.71023 25.8672C8.71023 26.6503 8.88082 27.3518 9.22303 27.9705Z" fill="#94BE20"/>
</g>
<g id="Group_2">
<path id="Vector_2" d="M62.6958 35.9653H52.0487L42.3587 24.0538H39.2298V35.9653H24.8389L27.6368 3.48193H44.5294C46.46 3.48193 48.1404 3.59425 49.5726 3.8199C51.0047 4.04555 52.3276 4.51421 53.5421 5.22689C54.7873 5.96817 55.7762 6.91058 56.5076 8.05211C57.239 9.19363 57.6047 10.6445 57.6047 12.4038C57.6047 14.891 57.005 16.9086 55.8068 18.4575C54.6086 20.0064 53.0048 21.2388 50.9965 22.1547L62.6958 35.9653ZM48.6399 13.4309C48.6399 12.6162 48.4724 11.9147 48.1384 11.3256C47.8043 10.7364 47.2476 10.2821 46.4692 9.96247C45.9248 9.74397 45.317 9.60613 44.6479 9.54793C43.9788 9.48973 43.1453 9.46114 42.1493 9.46114H39.2308V18.2094H41.7295C42.944 18.2094 43.9747 18.14 44.8236 18.0021C45.6725 17.8643 46.3916 17.5692 46.9831 17.1189C47.5439 16.7115 47.9596 16.2245 48.2323 15.6568C48.503 15.0881 48.6399 14.3468 48.6399 13.4309Z" fill="url(#paint0_radial_0_1)"/>
</g>
<g id="XMLID_2_">
<g id="Group_3">
<path id="XMLID_5_" d="M24.5528 3.38287L33.1723 0.988535C33.4082 0.923188 33.6238 1.14169 33.5543 1.37653L28.4356 18.8414C28.3569 19.1079 28.6409 19.3356 28.885 19.2018L32.7545 17.075C33.017 16.931 33.3122 17.2037 33.1886 17.4763L23.1053 39.8044C22.9511 40.1454 22.4373 39.9749 22.517 39.6094L25.5059 25.9652C25.5651 25.6957 25.2709 25.4884 25.036 25.6344L22.3106 27.3354C22.09 27.4733 21.808 27.2966 21.8356 27.0383L24.326 3.65141C24.3403 3.52276 24.4302 3.41759 24.5528 3.38287Z" fill="url(#paint1_radial_0_1)"/>
<path id="Vector_3" d="M22.8264 40.1934C22.7712 40.1934 22.715 40.1842 22.6588 40.1659C22.4035 40.0811 22.2594 39.8289 22.3166 39.5655L25.3056 25.9213C25.3188 25.8591 25.28 25.8233 25.2627 25.8111C25.2453 25.7988 25.1983 25.7743 25.1442 25.808L22.4188 27.5091C22.2502 27.6152 22.0408 27.6142 21.8713 27.5091C21.7027 27.4039 21.6108 27.215 21.6322 27.0169L24.1227 3.62898C24.1451 3.41762 24.2922 3.24303 24.4975 3.18585L33.117 0.791511C33.2999 0.739438 33.4888 0.79049 33.6226 0.926288C33.7565 1.06107 33.8035 1.25098 33.7503 1.43374L28.6326 18.8997C28.6142 18.9619 28.651 18.9997 28.6683 19.013C28.6847 19.0273 28.7296 19.0548 28.7868 19.0232L32.6553 16.8964C32.8545 16.7871 33.0884 16.8167 33.2549 16.9699C33.4204 17.123 33.4684 17.3548 33.3744 17.5611L23.2922 39.8881C23.2053 40.0801 23.0235 40.1934 22.8264 40.1934ZM25.2014 25.3812C25.3045 25.3812 25.4077 25.4129 25.4986 25.4772C25.6713 25.5987 25.7509 25.8029 25.706 26.0091L22.7171 39.6533C22.6997 39.735 22.7538 39.7666 22.7875 39.7779C22.8213 39.7881 22.8846 39.7962 22.9183 39.7207L33.0016 17.3926C33.0302 17.3293 32.9934 17.2864 32.9771 17.2701C32.9597 17.2548 32.9137 17.2211 32.8524 17.2558L28.984 19.3826C28.8001 19.4837 28.5754 19.4643 28.412 19.3326C28.2485 19.2009 28.1811 18.9864 28.2393 18.7853L33.3581 1.31939C33.3744 1.26527 33.3448 1.2275 33.3315 1.21422C33.3182 1.20095 33.2804 1.17134 33.2273 1.18665L24.6079 3.58099C24.565 3.59324 24.5343 3.62898 24.5302 3.67289L22.0398 27.0608C22.0337 27.1211 22.0725 27.1527 22.0899 27.1629C22.1072 27.1742 22.1522 27.1946 22.2032 27.1629L24.9286 25.4619C25.0134 25.4078 25.1074 25.3812 25.2014 25.3812Z" fill="url(#paint2_radial_0_1)"/>
</g>
<path id="XMLID_3_" d="M32.9454 17.5131L23.0123 39.687C22.8856 39.9341 22.5802 39.8177 22.6241 39.54L25.6457 25.8621C25.7029 25.6018 25.4108 25.2638 24.9623 25.5078L22.335 27.0741C22.0316 27.2385 22.1399 27.0925 22.2921 26.9148L32.8177 17.3773C33.0322 17.1945 33.0343 17.3364 32.9454 17.5131Z" fill="url(#paint3_radial_0_1)"/>
</g>
<path id="XMLID_1_" opacity="0.14" d="M32.9454 17.5131L23.0123 39.687C22.8856 39.9341 22.5802 39.8177 22.6241 39.54L25.6457 25.8621C25.7029 25.6018 25.4108 25.2638 24.9623 25.5078L22.335 27.0741C22.0316 27.2385 22.1399 27.0925 22.2921 26.9148L32.8177 17.3773C33.0322 17.1945 33.0343 17.3364 32.9454 17.5131Z" fill="#2A3180"/>
</g>
</g>
</g>
</g>
</g>
</g>
</g>
</g>
</g>
</g>
</g>
<defs>
<filter id="filter0_d_0_1" x="-39.2" y="-53.2" width="141.4" height="1127.4" filterUnits="userSpaceOnUse" color-interpolation-filters="sRGB">
<feFlood flood-opacity="0" result="BackgroundImageFix"/>
<feColorMatrix in="SourceAlpha" type="matrix" values="0 0 0 0 0 0 0 0 0 0 0 0 0 0 0 0 0 0 127 0" result="hardAlpha"/>
<feOffset/>
<feGaussianBlur stdDeviation="14.6"/>
<feComposite in2="hardAlpha" operator="out"/>
<feColorMatrix type="matrix" values="0 0 0 0 0 0 0 0 0 0 0 0 0 0 0 0 0 0 0.05 0"/>
<feBlend mode="normal" in2="BackgroundImageFix" result="effect1_dropShadow_0_1"/>
<feBlend mode="normal" in="SourceGraphic" in2="effect1_dropShadow_0_1" result="shape"/>
</filter>
<radialGradient id="paint0_radial_0_1" cx="0" cy="0" r="1" gradientUnits="userSpaceOnUse" gradientTransform="translate(43.7693 19.7242) scale(18.1733 16.9783)">
<stop stop-color="#39A8E0"/>
<stop offset="1" stop-color="#29265B"/>
</radialGradient>
<radialGradient id="paint1_radial_0_1" cx="0" cy="0" r="1" gradientUnits="userSpaceOnUse" gradientTransform="translate(28.0383 20.4836) rotate(-4.25309) scale(11.1559 15.7609)">
<stop stop-color="#39A8E0"/>
<stop offset="1" stop-color="#29265B"/>
</radialGradient>
<radialGradient id="paint2_radial_0_1" cx="0" cy="0" r="1" gradientUnits="userSpaceOnUse" gradientTransform="translate(27.701 20.4827) scale(14.5899 14.5833)">
<stop stop-color="#39A8E0"/>
<stop offset="0.097" stop-color="#36A0D7"/>
<stop offset="0.2715" stop-color="#328BC1"/>
<stop offset="0.5017" stop-color="#30699F"/>
<stop offset="0.6844" stop-color="#314E84"/>
</radialGradient>
<radialGradient id="paint3_radial_0_1" cx="0" cy="0" r="1" gradientUnits="userSpaceOnUse" gradientTransform="translate(27.8169 28.5631) rotate(-4.25309) scale(7.11091 9.56935)">
<stop stop-color="#39A8E0"/>
<stop offset="1" stop-color="#2A3180"/>
</radialGradient>
<clipPath id="clip0_0_1">
<rect width="1728" height="1117" fill="white" transform="translate(-10 -48)"/>
</clipPath>
</defs>
</svg>
