<svg width="21" height="29" viewBox="0 0 21 29" fill="none" xmlns="http://www.w3.org/2000/svg">
    <path
        d="M5.25 0.5C6.17969 0.5 7 1.32031 7 2.25V7.5H3.5V2.25C3.5 1.32031 4.26562 0.5 5.25 0.5ZM15.75 0.5C16.6797 0.5 17.5 1.32031 17.5 2.25V7.5H14V2.25C14 1.32031 14.7656 0.5 15.75 0.5ZM19.25 9.25C20.1797 9.25 21 10.0703 21 11C21 11.9844 20.1797 12.75 19.25 12.75V14.5C19.25 18.7656 16.2422 22.2656 12.25 23.0859V28.5H8.75V23.0859C4.70312 22.2656 1.75 18.7656 1.75 14.5V12.75C0.765625 12.75 0 11.9844 0 11C0 10.0703 0.765625 9.25 1.75 9.25H19.25Z"
        fill="white" />
</svg>